<?xml version="1.0" standalone="no"?>
<!DOCTYPE svg PUBLIC "-//W3C//DTD SVG 20010904//EN"
 "http://www.w3.org/TR/2001/REC-SVG-20010904/DTD/svg10.dtd">
<svg version="1.0" xmlns="http://www.w3.org/2000/svg"
 width="700.000000pt" height="700.000000pt" viewBox="0 0 700.000000 700.000000"
 preserveAspectRatio="xMidYMid meet">
<metadata>
Created by potrace 1.14, written by Peter Selinger 2001-2017
</metadata>
<g transform="translate(0.000000,700.000000) scale(0.100000,-0.100000)"
fill="#000000" stroke="none">
<path d="M3505 6987 c-11 -7 -94 -55 -185 -107 -91 -52 -177 -102 -191 -110
-14 -8 -81 -46 -148 -83 -107 -61 -121 -72 -121 -95 0 -15 0 -192 0 -394 0
-203 -3 -368 -8 -368 -4 0 -16 6 -27 14 -11 7 -51 30 -90 51 -38 21 -82 46
-97 57 -14 10 -29 18 -32 18 -5 0 -128 70 -176 101 -8 5 -31 17 -50 27 -19 9
-36 20 -38 25 -2 4 -7 7 -11 7 -4 0 -43 20 -86 45 l-78 44 -46 -26 c-25 -14
-75 -42 -111 -63 -85 -50 -127 -73 -170 -96 -19 -11 -37 -21 -40 -24 -3 -3
-16 -11 -30 -18 -14 -6 -32 -16 -40 -22 -8 -5 -55 -32 -105 -60 -49 -28 -97
-55 -105 -60 -8 -5 -112 -64 -230 -132 -118 -67 -227 -129 -241 -138 -14 -8
-81 -46 -148 -85 -68 -38 -130 -75 -139 -80 -37 -22 -264 -151 -282 -160 -20
-10 -20 -25 -20 -990 l0 -980 108 -60 c59 -33 127 -71 152 -85 25 -14 47 -27
50 -30 3 -3 21 -14 40 -24 19 -11 92 -51 161 -90 126 -71 126 -71 103 -89 -12
-9 -25 -17 -28 -17 -2 0 -44 -23 -93 -51 -48 -29 -108 -63 -133 -77 -25 -13
-70 -39 -100 -57 -30 -18 -59 -34 -65 -36 -5 -2 -52 -29 -102 -59 l-93 -54 0
-416 0 -415 280 -160 c154 -88 297 -169 317 -180 21 -11 40 -23 43 -26 3 -3
19 -13 35 -21 71 -37 107 -57 118 -66 7 -5 37 -22 67 -38 30 -16 57 -31 60
-35 3 -3 34 -21 70 -40 36 -19 66 -37 68 -41 2 -5 7 -8 12 -8 5 0 48 -23 97
-51 48 -28 102 -60 119 -69 18 -10 127 -73 243 -139 116 -67 215 -121 221
-121 5 0 10 -4 10 -9 0 -5 12 -14 28 -20 15 -6 65 -34 112 -62 47 -28 108 -63
135 -78 95 -53 130 -73 185 -106 30 -18 75 -44 100 -58 77 -42 634 -362 656
-377 19 -12 27 -10 65 10 24 13 59 30 77 39 17 8 32 19 32 23 0 4 4 8 10 8 8
0 50 23 235 130 17 10 84 48 150 86 66 37 122 71 125 75 3 4 5 183 5 398 0
215 2 391 4 391 2 0 29 -16 61 -35 32 -19 63 -35 69 -35 6 0 11 -4 11 -10 0
-5 5 -10 11 -10 6 0 64 -32 129 -70 65 -39 123 -70 129 -70 6 0 11 -4 11 -10
0 -5 4 -10 9 -10 5 0 64 -32 132 -70 l122 -71 56 28 c31 15 58 30 61 33 3 4
37 24 75 45 108 60 108 60 145 83 19 11 39 21 44 21 5 -1 12 3 15 8 3 5 69 44
146 88 77 43 152 87 168 98 15 10 27 15 27 10 0 -4 4 -3 8 2 6 9 99 64 292
173 25 14 61 35 81 46 20 12 119 68 220 126 101 57 186 107 189 110 3 3 25 16
50 29 25 14 65 37 90 51 l45 26 0 973 c0 535 -2 976 -5 980 -4 5 -241 142
-430 249 -19 10 -59 33 -88 51 -29 17 -56 31 -60 31 -4 0 -18 9 -32 19 l-24
19 47 23 c26 13 47 27 47 31 0 4 4 8 9 8 8 0 154 80 256 141 17 10 53 30 80
44 28 15 58 34 68 43 9 8 17 11 17 6 0 -5 4 -4 8 2 4 6 28 21 55 34 26 13 48
28 48 34 4 36 3 819 -1 825 -8 11 -148 91 -159 91 -6 0 -11 5 -11 10 0 6 -4
10 -10 10 -5 0 -63 32 -129 70 -66 39 -125 70 -131 70 -5 0 -10 5 -10 10 0 6
-4 10 -9 10 -9 0 -106 53 -161 88 -14 9 -28 15 -32 14 -5 -1 -8 2 -8 8 0 5 -4
10 -9 10 -5 0 -49 23 -98 51 -48 28 -103 60 -121 70 -18 11 -66 38 -105 60
-40 23 -91 52 -115 66 -23 13 -93 53 -154 89 -61 35 -112 64 -113 64 -2 0 -92
52 -200 115 -109 63 -199 115 -201 115 -1 0 -68 38 -149 85 -80 47 -148 85
-151 85 -3 0 -30 16 -60 35 -30 19 -56 35 -58 35 -2 0 -65 36 -141 80 -76 44
-141 80 -145 80 -5 0 -15 6 -22 13 -14 13 -75 49 -123 73 -16 8 -43 23 -60 34
-16 10 -52 31 -80 46 -27 14 -62 35 -77 45 -14 11 -29 19 -32 19 -2 0 -32 16
-65 35 -32 19 -61 35 -63 34 -2 -1 -12 -6 -23 -12z m61 -786 c5 -5 26 -19 47
-30 67 -38 111 -63 212 -121 55 -32 118 -68 140 -80 22 -12 112 -64 200 -115
88 -51 183 -105 210 -120 85 -48 118 -67 306 -175 294 -170 313 -181 332 -187
9 -3 17 -9 17 -14 0 -5 4 -9 10 -9 5 0 44 -21 87 -46 43 -25 87 -50 98 -55 11
-5 34 -18 50 -29 17 -11 37 -23 45 -27 8 -4 62 -34 120 -68 58 -34 112 -64
120 -68 8 -4 22 -11 30 -17 8 -5 54 -32 103 -60 48 -28 87 -52 87 -55 0 -2
-39 -25 -87 -53 -49 -27 -137 -77 -198 -112 -60 -35 -123 -71 -140 -80 -16
-10 -100 -57 -185 -105 -85 -48 -168 -96 -185 -106 -69 -44 -486 -279 -494
-279 -5 0 -11 -4 -13 -9 -1 -4 -12 -11 -23 -15 -20 -6 -20 -2 -20 370 0 206
-2 379 -5 383 -3 5 -32 23 -65 42 -33 18 -61 37 -63 41 -2 4 -8 8 -13 8 -5 0
-103 53 -217 119 -114 65 -220 126 -237 135 -16 9 -43 25 -60 35 -36 22 -112
64 -182 103 l-51 29 -1 389 c-1 215 2 390 7 390 4 0 12 -4 18 -9z m-1255 -844
c31 -18 63 -37 70 -42 8 -6 32 -20 54 -30 22 -11 42 -23 43 -27 2 -5 9 -8 17
-8 7 0 18 -7 25 -15 7 -9 15 -13 18 -11 2 3 24 -8 48 -24 23 -17 45 -30 48
-30 3 0 35 -18 71 -40 36 -22 67 -40 70 -40 3 0 50 -27 106 -60 55 -33 103
-60 105 -60 2 0 33 -18 69 -40 36 -22 67 -40 69 -40 2 0 53 -29 114 -64 61
-36 131 -76 154 -89 62 -34 352 -200 356 -203 2 -1 4 -345 3 -763 l0 -760 45
-31 c25 -16 47 -30 49 -30 2 0 43 -23 92 -51 48 -28 108 -63 133 -77 121 -69
156 -89 199 -113 25 -15 62 -36 81 -47 19 -12 57 -33 85 -48 27 -15 67 -37 87
-51 l38 -23 348 199 c191 109 363 208 382 220 19 11 42 24 50 28 8 4 126 71
263 150 l247 142 0 -109 c0 -61 1 -247 1 -415 0 -168 -1 -372 -1 -453 l0 -148
-147 -85 c-81 -46 -157 -89 -168 -96 -11 -7 -27 -16 -35 -20 -8 -4 -48 -26
-88 -50 -40 -24 -77 -43 -82 -43 -6 0 -10 -3 -10 -7 0 -5 -10 -13 -23 -19 -42
-20 -162 -87 -189 -106 -14 -10 -28 -18 -31 -18 -2 0 -59 -32 -126 -71 l-122
-70 -52 29 c-29 16 -117 66 -197 112 -80 46 -160 91 -177 101 -18 11 -50 29
-70 40 -21 12 -58 33 -83 47 -25 14 -61 35 -80 47 -19 12 -42 25 -50 28 -8 4
-37 21 -65 38 -27 16 -58 33 -67 36 -10 3 -18 10 -18 16 0 6 -3 7 -7 4 -3 -4
-13 -1 -22 6 -9 8 -158 94 -331 193 -173 98 -317 181 -320 184 -3 3 -14 10
-25 16 -20 11 -20 22 -21 761 -1 412 -4 759 -8 769 -3 11 -18 25 -33 31 -29
12 -124 64 -133 73 -3 3 -16 11 -29 18 -13 8 -40 23 -60 34 -20 12 -61 34 -91
51 -30 16 -59 33 -65 37 -5 5 -32 20 -60 36 -27 15 -63 36 -80 46 -16 10 -46
26 -65 35 -19 10 -37 21 -40 24 -3 3 -37 23 -77 45 l-72 39 -65 -35 c-36 -19
-66 -38 -66 -42 0 -5 -5 -8 -11 -8 -6 0 -24 -9 -40 -21 -16 -11 -29 -17 -29
-13 0 4 -8 0 -17 -8 -16 -13 -77 -49 -217 -127 -21 -12 -118 -68 -215 -123
-97 -56 -193 -111 -213 -122 -20 -12 -78 -45 -129 -73 -50 -29 -96 -53 -100
-53 -5 0 -9 -4 -9 -10 0 -5 -4 -10 -10 -10 -5 0 -43 -20 -85 -45 -50 -29 -77
-40 -80 -32 -2 6 -3 259 -2 560 l2 549 120 70 c66 38 145 84 177 101 31 18 98
56 150 86 51 30 107 62 123 71 17 9 73 41 125 71 52 29 97 56 100 59 3 3 27
16 55 30 27 14 54 29 60 33 5 5 32 21 60 36 l50 29 45 -25 c25 -14 70 -39 101
-56z m3558 -1191 l17 -86 -135 -77 c-75 -43 -145 -83 -156 -90 -11 -6 -36 -20
-55 -31 -19 -10 -111 -62 -204 -115 -92 -54 -172 -97 -177 -97 -5 0 -9 -4 -9
-9 0 -5 -12 -14 -27 -20 -16 -6 -37 -16 -48 -23 -55 -35 -126 -78 -130 -78 -2
0 -37 -19 -77 -43 -40 -24 -80 -46 -88 -50 -8 -4 -33 -18 -55 -32 -22 -13 -50
-29 -62 -35 -12 -5 -41 -21 -63 -36 -46 -30 -38 -32 -152 34 -61 35 -69 46
-40 56 9 3 40 20 67 36 28 17 61 36 75 43 14 6 27 14 30 17 5 5 12 9 89 52 20
11 81 46 136 78 55 32 116 66 135 77 170 96 225 129 228 135 2 5 8 8 13 8 9 0
245 132 264 148 6 4 17 11 25 14 8 3 96 53 195 111 99 57 182 103 184 101 2
-2 11 -41 20 -88z m-3408 -489 c68 -37 139 -80 143 -86 3 -4 -16 -18 -42 -31
-26 -14 -49 -27 -52 -30 -3 -3 -14 -10 -25 -16 -87 -46 -111 -60 -115 -64 -3
-3 -16 -11 -30 -18 -29 -15 1 2 -485 -277 -209 -120 -396 -226 -415 -237 -19
-10 -42 -23 -50 -29 -29 -18 -241 -139 -244 -139 -3 0 -15 49 -21 90 -2 8 -6
31 -9 51 l-7 36 263 151 c145 83 274 157 288 164 14 7 44 26 67 41 24 15 45
27 48 27 2 0 64 34 137 77 106 60 519 299 524 302 1 1 12 -5 25 -12z m97 -864
c2 -77 2 -99 0 -156 -2 -33 0 -61 5 -64 4 -2 4 -9 1 -15 -9 -14 -9 -92 0 -107
4 -6 4 -11 -1 -11 -7 0 -9 -94 -3 -110 2 -3 1 -9 0 -15 -5 -22 -2 -93 4 -104
4 -6 4 -11 -1 -11 -9 0 -9 -97 0 -106 3 -3 4 -11 1 -18 -3 -7 6 -18 18 -24 13
-7 46 -26 73 -42 28 -16 66 -38 85 -47 19 -10 37 -21 38 -25 2 -5 8 -8 13 -8
5 0 38 -18 74 -40 36 -22 67 -40 69 -40 2 0 70 -38 151 -85 80 -47 149 -85
152 -85 4 0 14 -6 22 -14 14 -12 92 -56 164 -93 19 -10 27 -23 28 -41 4 -109
1 -743 -3 -748 -3 -3 -43 17 -89 44 -46 27 -104 60 -129 74 -25 14 -62 35 -82
47 -21 11 -55 31 -75 42 -21 12 -50 30 -64 40 -14 10 -28 16 -31 13 -3 -2 -11
2 -18 11 -7 8 -19 15 -26 15 -8 0 -14 5 -14 10 0 6 -4 10 -9 10 -5 0 -95 50
-201 110 -106 60 -196 110 -201 110 -5 0 -9 5 -9 10 0 6 -4 10 -9 10 -9 0
-379 209 -441 249 -14 8 -27 16 -30 16 -8 1 -104 57 -120 71 -8 7 -18 13 -23
13 -4 0 -17 7 -30 15 -53 34 -240 136 -248 136 -5 0 -9 5 -9 10 0 6 -4 10 -9
10 -5 0 -47 23 -94 50 -47 28 -90 50 -96 50 -6 0 -11 4 -11 9 0 5 -8 11 -17
14 -31 11 -137 75 -141 86 -2 5 18 22 45 36 26 14 62 33 78 43 17 9 77 44 135
77 58 32 107 62 110 65 3 3 34 21 70 39 36 19 72 39 80 46 8 6 34 21 57 33 57
29 87 46 93 53 3 3 10 8 15 10 10 4 148 82 175 99 19 12 473 270 475 270 1 0
2 -17 3 -37z"/>
</g>
</svg>
