<svg width="121" height="30" viewBox="0 0 121 30" fill="none" xmlns="http://www.w3.org/2000/svg">
<path d="M10.765 23.9974V23.9625V21.7547V21.7205L12.7556 22.859L14.7165 21.7375L16.6136 20.6527L17.6556 20.0568L17.6648 20.0516V20.0412V18.8493V16.6798V14.577V14.4371L15.8263 13.3857L15.704 13.4558L13.8655 14.5072L11.9685 15.5919L11.4672 15.305L11.6263 15.2138L13.3641 14.2203L15.3249 13.0988L15.704 12.882L15.795 13.3677L15.8263 13.3854L17.6648 12.334V12.1951V11.7605V10.312V9.95216L9.02543 5.01123L7.0951 6.115V6.14992V8.35773V8.39187L5.10453 7.25344L3.14368 8.37493L1.2465 9.45968L0.204519 10.0556L0.195312 10.0608V10.0712V11.2631V13.4326V15.5354V15.6753L2.03384 16.7267L2.15616 16.6566L3.99468 15.6052L5.8916 14.5205L6.39299 14.8074L6.23384 14.8986L4.49607 15.8921L2.53523 17.0136L2.15616 17.2304L2.06514 16.7447L2.03384 16.727L0.195312 17.7784V17.9173V18.3519V19.8004V20.1602L8.83471 25.1012L10.765 23.9974ZM11.626 10.9835L9.05542 9.51336V7.27141L15.5167 10.9666L13.5566 12.0875L11.626 13.1916V10.9835ZM8.19416 18.0074V15.8379V15.7993V15.2258V14.625V13.7773V13.6228L5.86714 12.2918L4.99062 12.7929L3.93023 13.3992L2.1559 14.4139V12.3843V11.1818L3.20682 10.5807L5.104 9.4959L9.66545 12.1045V14.274V14.3125V14.8861V15.4869V16.3346V16.4891L11.9925 17.8201L12.869 17.319L13.9294 16.7126L15.7037 15.698V17.7276V18.9301L14.6528 19.5312L12.7556 20.616L8.19416 18.0074ZM2.34293 19.1458L4.30299 18.0249L6.23358 16.9208V19.1289L8.8042 20.599V22.841L2.34293 19.1458Z" fill="url(#paint0_linear_533_1233)"/>
<rect width="10.4702" height="0.104594" transform="translate(8.91406 4.89893) rotate(29.8057)" fill="url(#paint1_linear_533_1233)"/>
<path d="M38.3111 13.1662H36.3168C36.2401 12.7401 36.0973 12.3651 35.8885 12.0412C35.6797 11.7173 35.424 11.4425 35.1214 11.2166C34.8189 10.9908 34.4801 10.8203 34.1051 10.7053C33.7344 10.5902 33.3402 10.5327 32.9226 10.5327C32.1683 10.5327 31.4929 10.7223 30.8963 11.1016C30.304 11.4808 29.8352 12.0369 29.4901 12.7699C29.1491 13.5028 28.9787 14.3977 28.9787 15.4545C28.9787 16.5199 29.1491 17.419 29.4901 18.152C29.8352 18.8849 30.3061 19.4389 30.9027 19.8139C31.4993 20.1889 32.1705 20.3764 32.9162 20.3764C33.3295 20.3764 33.7216 20.321 34.0923 20.2102C34.4673 20.0952 34.8061 19.9268 35.1087 19.7053C35.4112 19.4837 35.6669 19.2131 35.8757 18.8935C36.0888 18.5696 36.2358 18.1989 36.3168 17.7812L38.3111 17.7876C38.2045 18.4311 37.9979 19.0234 37.6911 19.5646C37.3885 20.1016 36.9986 20.5661 36.5213 20.9581C36.0483 21.3459 35.5071 21.6463 34.8977 21.8594C34.2884 22.0724 33.6236 22.179 32.9034 22.179C31.7699 22.179 30.7599 21.9105 29.8736 21.3736C28.9872 20.8324 28.2884 20.0589 27.777 19.0533C27.2699 18.0476 27.0163 16.848 27.0163 15.4545C27.0163 14.0568 27.272 12.8572 27.7834 11.8558C28.2947 10.8501 28.9936 10.0788 29.88 9.5419C30.7663 9.00071 31.7741 8.73011 32.9034 8.73011C33.598 8.73011 34.2457 8.83026 34.8466 9.03054C35.4517 9.22656 35.995 9.51633 36.4766 9.89986C36.9581 10.2791 37.3565 10.7436 37.6719 11.2933C37.9872 11.8388 38.2003 12.4631 38.3111 13.1662ZM44.6568 22.1982C43.7363 22.1982 42.9331 21.9872 42.247 21.5653C41.5609 21.1435 41.0282 20.5533 40.649 19.7947C40.2697 19.0362 40.0801 18.1499 40.0801 17.1357C40.0801 16.1172 40.2697 15.2266 40.649 14.4638C41.0282 13.701 41.5609 13.1087 42.247 12.6868C42.9331 12.2649 43.7363 12.054 44.6568 12.054C45.5772 12.054 46.3805 12.2649 47.0666 12.6868C47.7527 13.1087 48.2853 13.701 48.6646 14.4638C49.0439 15.2266 49.2335 16.1172 49.2335 17.1357C49.2335 18.1499 49.0439 19.0362 48.6646 19.7947C48.2853 20.5533 47.7527 21.1435 47.0666 21.5653C46.3805 21.9872 45.5772 22.1982 44.6568 22.1982ZM44.6632 20.5938C45.2598 20.5938 45.7541 20.4361 46.1461 20.1207C46.5382 19.8054 46.8279 19.3857 47.0154 18.8615C47.2072 18.3374 47.3031 17.7599 47.3031 17.1293C47.3031 16.5028 47.2072 15.9276 47.0154 15.4034C46.8279 14.875 46.5382 14.451 46.1461 14.1314C45.7541 13.8118 45.2598 13.652 44.6632 13.652C44.0623 13.652 43.5637 13.8118 43.1674 14.1314C42.7754 14.451 42.4835 14.875 42.2917 15.4034C42.1042 15.9276 42.0105 16.5028 42.0105 17.1293C42.0105 17.7599 42.1042 18.3374 42.2917 18.8615C42.4835 19.3857 42.7754 19.8054 43.1674 20.1207C43.5637 20.4361 44.0623 20.5938 44.6632 20.5938ZM55.0423 22.1918C54.2496 22.1918 53.5423 21.9893 52.9201 21.5845C52.3022 21.1754 51.8164 20.5937 51.4627 19.8395C51.1133 19.081 50.9386 18.1712 50.9386 17.1101C50.9386 16.049 51.1154 15.1413 51.4691 14.3871C51.8271 13.6328 52.3171 13.0554 52.9393 12.6548C53.5614 12.2543 54.2667 12.054 55.055 12.054C55.6644 12.054 56.1545 12.1562 56.5252 12.3608C56.9002 12.5611 57.19 12.7955 57.3945 13.0639C57.6033 13.3324 57.7653 13.5689 57.8803 13.7734H57.9954V8.90909H59.9066V22H58.0401V20.4723H57.8803C57.7653 20.6811 57.5991 20.9197 57.3817 21.1882C57.1687 21.4567 56.8746 21.6911 56.4996 21.8913C56.1246 22.0916 55.6388 22.1918 55.0423 22.1918ZM55.4641 20.5618C56.0138 20.5618 56.4783 20.4169 56.8576 20.1271C57.2411 19.8331 57.5309 19.4261 57.7269 18.9062C57.9272 18.3864 58.0273 17.7812 58.0273 17.0909C58.0273 16.4091 57.9293 15.8125 57.7333 15.3011C57.5373 14.7898 57.2496 14.3913 56.8704 14.1058C56.4911 13.8203 56.0224 13.6776 55.4641 13.6776C54.8888 13.6776 54.4094 13.8267 54.0259 14.125C53.6424 14.4233 53.3526 14.8303 53.1566 15.3459C52.9648 15.8615 52.869 16.4432 52.869 17.0909C52.869 17.7472 52.967 18.3374 53.163 18.8615C53.359 19.3857 53.6488 19.8011 54.0323 20.108C54.4201 20.4105 54.8974 20.5618 55.4641 20.5618ZM66.8659 22.1982C65.8986 22.1982 65.0655 21.9915 64.3667 21.5781C63.6721 21.1605 63.1351 20.5746 62.7559 19.8203C62.3809 19.0618 62.1934 18.1733 62.1934 17.1548C62.1934 16.1491 62.3809 15.2628 62.7559 14.4957C63.1351 13.7287 63.6635 13.13 64.3411 12.6996C65.0229 12.2692 65.8198 12.054 66.7317 12.054C67.2857 12.054 67.8226 12.1456 68.3425 12.3288C68.8624 12.5121 69.329 12.7997 69.7424 13.1918C70.1557 13.5838 70.4817 14.093 70.7203 14.7195C70.959 15.3416 71.0783 16.098 71.0783 16.9886V17.6662H63.2736V16.2344H69.2054C69.2054 15.7315 69.1032 15.2862 68.8986 14.8984C68.6941 14.5064 68.4064 14.1974 68.0357 13.9716C67.6692 13.7457 67.2388 13.6328 66.7445 13.6328C66.2076 13.6328 65.7388 13.7649 65.3382 14.0291C64.9419 14.2891 64.6351 14.63 64.4178 15.0518C64.2047 15.4695 64.0982 15.9233 64.0982 16.4134V17.532C64.0982 18.1882 64.2132 18.7464 64.4434 19.2067C64.6777 19.6669 65.0037 20.0185 65.4213 20.2614C65.839 20.5 66.3269 20.6193 66.8851 20.6193C67.2473 20.6193 67.5776 20.5682 67.8759 20.4659C68.1742 20.3594 68.432 20.2017 68.6493 19.9929C68.8667 19.7841 69.0328 19.5263 69.1479 19.2195L70.9569 19.5455C70.812 20.0781 70.552 20.5447 70.177 20.9453C69.8063 21.3416 69.3397 21.6506 68.7772 21.8722C68.2189 22.0895 67.5819 22.1982 66.8659 22.1982ZM75.1101 16.1705V22H73.1989V12.1818H75.0334V13.7798H75.1548C75.3807 13.2599 75.7344 12.8423 76.2159 12.527C76.7017 12.2116 77.3132 12.054 78.0504 12.054C78.7195 12.054 79.3054 12.1946 79.8082 12.4759C80.3111 12.7528 80.701 13.1662 80.978 13.7159C81.255 14.2656 81.3935 14.9453 81.3935 15.755V22H79.4822V15.9851C79.4822 15.2734 79.2969 14.7173 78.9261 14.3168C78.5554 13.9119 78.0462 13.7095 77.3984 13.7095C76.9553 13.7095 76.5611 13.8054 76.2159 13.9972C75.875 14.1889 75.6044 14.4702 75.4041 14.8409C75.2081 15.2074 75.1101 15.6506 75.1101 16.1705ZM90.1761 17.9283V12.1818H92.0938V22H90.2145V20.2997H90.1122C89.8864 20.8239 89.5241 21.2607 89.0256 21.6101C88.5313 21.9553 87.9155 22.1278 87.1783 22.1278C86.5476 22.1278 85.9893 21.9893 85.5036 21.7124C85.022 21.4311 84.6428 21.0156 84.3658 20.4659C84.093 19.9162 83.9567 19.2365 83.9567 18.4268V12.1818H85.8679V18.1967C85.8679 18.8658 86.0533 19.3984 86.424 19.7947C86.7947 20.1911 87.2763 20.3892 87.8686 20.3892C88.2266 20.3892 88.5824 20.2997 88.9361 20.1207C89.294 19.9418 89.5902 19.6712 89.8246 19.3089C90.0632 18.9467 90.1804 18.4865 90.1761 17.9283ZM94.6618 22V12.1818H96.573V22H94.6618ZM95.627 10.6669C95.2946 10.6669 95.0091 10.5561 94.7704 10.3345C94.536 10.1087 94.4189 9.8402 94.4189 9.52912C94.4189 9.21378 94.536 8.94531 94.7704 8.72372C95.0091 8.49787 95.2946 8.38494 95.627 8.38494C95.9593 8.38494 96.2427 8.49787 96.4771 8.72372C96.7157 8.94531 96.835 9.21378 96.835 9.52912C96.835 9.8402 96.7157 10.1087 96.4771 10.3345C96.2427 10.5561 95.9593 10.6669 95.627 10.6669ZM103.727 12.1818V13.7159H98.3643V12.1818H103.727ZM99.8026 9.82955H101.714V19.1172C101.714 19.4879 101.769 19.767 101.88 19.9545C101.991 20.1378 102.134 20.2635 102.308 20.3317C102.487 20.3956 102.681 20.4276 102.89 20.4276C103.043 20.4276 103.178 20.4169 103.293 20.3956C103.408 20.3743 103.497 20.3572 103.561 20.3445L103.906 21.9233C103.795 21.9659 103.638 22.0085 103.433 22.0511C103.229 22.098 102.973 22.1236 102.666 22.1278C102.163 22.1364 101.695 22.0469 101.26 21.8594C100.825 21.6719 100.474 21.3821 100.205 20.9901C99.9368 20.598 99.8026 20.1058 99.8026 19.5135V9.82955ZM107.05 25.6818C106.764 25.6818 106.504 25.6584 106.27 25.6115C106.035 25.5689 105.861 25.522 105.746 25.4709L106.206 23.9048C106.555 23.9986 106.866 24.0391 107.139 24.0263C107.412 24.0135 107.653 23.9112 107.861 23.7195C108.074 23.5277 108.262 23.2145 108.424 22.7798L108.66 22.1278L105.068 12.1818H107.113L109.6 19.8011H109.702L112.189 12.1818H114.241L110.194 23.3104C110.007 23.8217 109.768 24.2543 109.479 24.608C109.189 24.9659 108.844 25.2344 108.443 25.4134C108.042 25.5923 107.578 25.6818 107.05 25.6818Z" fill="url(#paint2_linear_533_1233)"/>
<defs>
<linearGradient id="paint0_linear_533_1233" x1="3.92453" y1="7.34512" x2="19.829" y2="31.9247" gradientUnits="userSpaceOnUse">
<stop stop-color="white"/>
<stop offset="1" stop-color="white" stop-opacity="0"/>
</linearGradient>
<linearGradient id="paint1_linear_533_1233" x1="11.5893" y1="0.386249" x2="-0.506371" y2="0.17601" gradientUnits="userSpaceOnUse">
<stop offset="0.678577" stop-color="#8400FF"/>
<stop offset="1" stop-color="#8400FF" stop-opacity="0"/>
</linearGradient>
<linearGradient id="paint2_linear_533_1233" x1="107.121" y1="38.0256" x2="70.3135" y2="-25.6255" gradientUnits="userSpaceOnUse">
<stop offset="0.104" stop-color="#2C2C2C"/>
<stop offset="0.8303" stop-color="#FFF7FF"/>
</linearGradient>
</defs>
</svg>
