<svg width="18" height="22" viewBox="0 0 18 22" fill="none" xmlns="http://www.w3.org/2000/svg">
<path d="M10.765 19.9974V19.9625V17.7547V17.7205L12.7556 18.859L14.7165 17.7375L16.6136 16.6527L17.6556 16.0568L17.6648 16.0516V16.0412V14.8493V12.6798V10.577V10.4371L15.8263 9.38569L15.704 9.45578L13.8655 10.5072L11.9685 11.5919L11.4672 11.305L11.6263 11.2138L13.3641 10.2203L15.3249 9.0988L15.704 8.88201L15.795 9.36771L15.8263 9.38543L17.6648 8.33403V8.19514V7.76051V6.31201V5.95216L9.02543 1.01123L7.0951 2.115V2.14992V4.35773V4.39187L5.10453 3.25344L3.14368 4.37493L1.2465 5.45968L0.204519 6.0556L0.195312 6.06082V6.07124V7.26309V9.43259V11.5354V11.6753L2.03384 12.7267L2.15616 12.6566L3.99468 11.6052L5.8916 10.5205L6.39299 10.8074L6.23384 10.8986L4.49607 11.8921L2.53523 13.0136L2.15616 13.2304L2.06514 12.7447L2.03384 12.727L0.195312 13.7784V13.9173V14.3519V15.8004V16.1602L8.83471 21.1012L10.765 19.9974ZM11.626 6.98349L9.05542 5.51336V3.27141L15.5167 6.96656L13.5566 8.08753L11.626 9.19156V6.98349ZM8.19416 14.0074V11.8379V11.7993V11.2258V10.625V9.77733V9.62281L5.86714 8.29182L4.99062 8.79289L3.93023 9.39924L2.1559 10.4139V8.38432V7.18179L3.20682 6.58065L5.104 5.4959L9.66545 8.10447V10.274V10.3125V10.8861V11.4869V12.3346V12.4891L11.9925 13.8201L12.869 13.319L13.9294 12.7126L15.7037 11.698V13.7276V14.9301L14.6528 15.5312L12.7556 16.616L8.19416 14.0074ZM2.34293 15.1458L4.30299 14.0249L6.23358 12.9208V15.1289L8.8042 16.599V18.841L2.34293 15.1458Z" fill="url(#paint0_linear_533_1234)"/>
<rect width="10.4702" height="0.104594" transform="translate(8.91406 0.898926) rotate(29.8057)" fill="url(#paint1_linear_533_1234)"/>
<defs>
<linearGradient id="paint0_linear_533_1234" x1="3.92453" y1="3.34512" x2="19.829" y2="27.9247" gradientUnits="userSpaceOnUse">
<stop stop-color="white"/>
<stop offset="1" stop-color="white" stop-opacity="0"/>
</linearGradient>
<linearGradient id="paint1_linear_533_1234" x1="11.5893" y1="0.386249" x2="-0.506371" y2="0.17601" gradientUnits="userSpaceOnUse">
<stop offset="0.678577" stop-color="#8400FF"/>
<stop offset="1" stop-color="#8400FF" stop-opacity="0"/>
</linearGradient>
</defs>
</svg>
